<?xml version="1.0" encoding="iso-8859-1"?>
<!-- Generator: Adobe Illustrator 22.1.0, SVG Export Plug-In . SVG Version: 6.00 Build 0)  -->
<svg xmlns="http://www.w3.org/2000/svg" xmlns:xlink="http://www.w3.org/1999/xlink" version="1.1" id="Layer_1" x="0px" y="0px" viewBox="0 0 48 48" style="enable-background:new 0 0 48 48;" xml:space="preserve">
<g>
	<path style="fill:#E89531;" d="M25.932,37.869l-2.088-4.592l7.725-3.584c1.256-0.582,2.74-0.026,3.315,1.242   c0.576,1.268,0.026,2.767-1.229,3.349L25.932,37.869z"/>
	<path style="fill:#E89531;" d="M30.491,38.329l-2.088-4.593l7.726-3.584c1.255-0.582,2.739-0.026,3.315,1.242   c0.576,1.268,0.025,2.768-1.229,3.35L30.491,38.329z"/>
	<path style="fill:#E89531;" d="M26.727,37.603c0.271,0.108,2.688,1.004,3.599-1.313c0.062-0.157,0.116-0.385,0.151-0.645   l2.006-0.871c0.068,0.841-0.06,1.648-0.301,2.264c-1.326,3.368-4.632,3.068-6.133,2.463l-9.343-3.635l0.614-1.924L26.727,37.603z"/>
	<path style="fill:#E89531;" d="M17.409,35.835c-0.508,0.222-1.095-0.017-1.313-0.528c-0.219-0.513,0.016-1.107,0.522-1.328   c0.508-0.222,1.096,0.016,1.314,0.526C18.15,35.019,17.916,35.611,17.409,35.835z"/>
</g>
<path style="fill:#FFB74D;" d="M43.796,32.603c-0.546-1.28-2.017-1.871-3.284-1.32l-8.029,3.492c0.068,0.842-0.06,1.649-0.301,2.265  c-1.326,3.368-4.632,3.067-6.133,2.463l-9.343-3.635l0.003-0.009c-0.265-0.088-0.495-0.273-0.614-0.553  c-0.219-0.513,0.016-1.107,0.522-1.328c0.232-0.102,0.478-0.097,0.7-0.023l0.003-0.01l0.053,0.021  c0.006,0.002,0.012,0.005,0.018,0.007l9.335,3.631c0.271,0.109,2.688,1.004,3.599-1.312c0.062-0.157,0.116-0.385,0.151-0.644  l0.002-0.002c0.217-1.365-1.013-2.229-1.746-2.523l-11.927-4.727C12.995,26.754,4,30.75,4,30.75l3.369,8.352l3.72-1.617  l13.106,5.271c0.721,0.29,1.476,0.308,2.171,0.12c0.013-0.003,0.024-0.004,0.038-0.007c0.013-0.004,0.023-0.009,0.037-0.013  c0.146-0.033,0.291-0.076,0.434-0.139l15.613-6.795C43.757,35.37,44.342,33.886,43.796,32.603z"/>
<path style="fill:#B0BEC5;" d="M26,6c-4.963,0-9,4.037-9,9s4.037,9,9,9s9-4.037,9-9S30.963,6,26,6z"/>
<path style="fill:#546E7A;" d="M26.997,20H25v-7.747L23,13v-2l3.783-1.518h0.213V20z"/>
</svg>
